<?xml version="1.0" encoding="iso-8859-1"?>
<!-- Generator: Adobe Illustrator 19.0.0, SVG Export Plug-In . SVG Version: 6.00 Build 0)  -->
<svg version="1.1" id="Layer_1" xmlns="http://www.w3.org/2000/svg" xmlns:xlink="http://www.w3.org/1999/xlink" x="0px" y="0px"
	 viewBox="0 0 468.076 468.076" style="enable-background:new 0 0 468.076 468.076;" xml:space="preserve">
<path style="fill:#235587;" d="M452.969,447.911h-27.869v-324.34c0-1.591-0.197-3.135-0.536-4.624h26.726
	c3.86,0,7.215-2.686,8.058-6.459c0.859-3.773-1.032-7.648-4.537-9.295L237.559,0.786c-2.245-1.048-4.797-1.048-7.05,0
	L13.272,103.194c-3.489,1.646-5.388,5.514-4.537,9.295c0.827,3.773,4.198,6.459,8.066,6.459h26.711
	c-0.331,1.481-0.528,3.033-0.528,4.624v324.348H15.115c-5.569,0-10.075,4.513-10.075,10.082c0,5.561,4.506,10.075,10.075,10.075
	h437.855c5.561,0,10.067-4.513,10.067-10.075C463.036,452.433,458.53,447.911,452.969,447.911z"/>
<path style="fill:#29304C;" d="M463.036,458.002c0-5.569-4.506-10.082-10.067-10.082h-27.869V123.571
	c0-1.591-0.197-3.135-0.536-4.624h26.726c3.86,0,7.215-2.686,8.058-6.459c0.859-3.773-1.032-7.648-4.537-9.295L237.559,0.786
	c-2.245-1.048-4.797-1.048-7.05,0L13.272,103.194c-3.489,1.646-5.388,5.514-4.537,9.295c0.827,3.773,4.198,6.459,8.066,6.459h26.711
	c-0.331,1.481-0.528,3.033-0.528,4.624v29.389l315.108,315.116h94.885l0.071-0.016l9.988-9.988
	C463.02,458.049,463.036,458.033,463.036,458.002z"/>
<path style="fill:#C17E52;" d="M219.765,430.196c0,3.513-2.844,6.372-6.372,6.372H107.976c-3.521,0-6.372-2.851-6.372-6.372V324.787
	c0-3.513,2.844-6.372,6.372-6.372h105.417c3.521,0,6.372,2.851,6.372,6.372L219.765,430.196L219.765,430.196z"/>
<path style="fill:#B56841;" d="M219.765,324.787v105.417c0,3.513-2.844,6.372-6.372,6.372H107.976"/>
<path style="fill:#A86743;" d="M101.611,324.787c0-3.513,2.844-6.372,6.372-6.372h105.417c3.521,0,6.372,2.851,6.372,6.372v105.417
	c0,3.513-2.844,6.372-6.372,6.372"/>
<path style="fill:#C17E52;" d="M373.365,430.196c0,3.513-2.844,6.372-6.372,6.372H261.576c-3.521,0-6.372-2.851-6.372-6.372V324.787
	c0-3.513,2.844-6.372,6.372-6.372h105.417c3.521,0,6.372,2.851,6.372,6.372L373.365,430.196L373.365,430.196z"/>
<path style="fill:#B56841;" d="M373.365,324.787v105.417c0,3.513-2.844,6.372-6.372,6.372H261.576"/>
<path style="fill:#A86743;" d="M255.211,324.787c0-3.513,2.844-6.372,6.372-6.372h105.417c3.521,0,6.372,2.851,6.372,6.372v105.417
	c0,3.513-2.844,6.372-6.372,6.372"/>
<path style="fill:#C17E52;" d="M296.565,281.85c0,3.513-2.844,6.372-6.372,6.372H184.776c-3.521,0-6.372-2.851-6.372-6.372V176.441
	c0-3.513,2.844-6.372,6.372-6.372h105.417c3.521,0,6.372,2.851,6.372,6.372L296.565,281.85L296.565,281.85z"/>
<path style="fill:#B56841;" d="M296.565,176.441V281.85c0,3.513-2.844,6.372-6.372,6.372H184.776"/>
<path style="fill:#A86743;" d="M178.411,176.441c0-3.513,2.844-6.372,6.372-6.372h105.417c3.521,0,6.372,2.851,6.372,6.372V281.85
	c0,3.513-2.844,6.372-6.372,6.372"/>
<g>
</g>
<g>
</g>
<g>
</g>
<g>
</g>
<g>
</g>
<g>
</g>
<g>
</g>
<g>
</g>
<g>
</g>
<g>
</g>
<g>
</g>
<g>
</g>
<g>
</g>
<g>
</g>
<g>
</g>
</svg>
