<svg height="512" viewBox="0 0 64 64" width="512" xmlns="http://www.w3.org/2000/svg"><rect fill="#ffe477" height="16" rx="2" width="16" x="45" y="45"/><rect fill="#ffe477" height="16" rx="2" width="16" x="45" y="3"/><g fill="#c0ab91"><path d="m55 45v8l-2-2-2 2v-8h2z"/><path d="m55 3v8l-2-2-2 2v-8z"/><path d="m43 40h-4v-12h-14v12h-4v-16h22z"/></g><path d="m43 24h-22l11-5.69z" fill="#00d7df"/><path d="m25 28h14v12h-14z" fill="#00d7df"/><rect fill="#ffe477" height="16" rx="2" width="16" x="3" y="45"/><rect fill="#ffe477" height="16" rx="2" width="16" x="3" y="3"/><path d="m13 45v8l-2-2-2 2v-8h2z" fill="#c0ab91"/><path d="m13 3v8l-2-2-2 2v-8z" fill="#c0ab91"/><path d="m53 30a1 1 0 0 0 1-1v-9h5a3 3 0 0 0 3-3v-12a3 3 0 0 0 -3-3h-12a3 3 0 0 0 -3 3v12a3 3 0 0 0 3 3h5v8h-8v-4h-.012a.988.988 0 0 0 -.529-.888l-11-5.69a1 1 0 0 0 -.918 0l-11 5.69a.988.988 0 0 0 -.529.888h-.012v4h-8v-8h5a3 3 0 0 0 3-3v-12a3 3 0 0 0 -3-3h-12a3 3 0 0 0 -3 3v12a3 3 0 0 0 3 3h5v9a1 1 0 0 0 1 1h9v4h-9a1 1 0 0 0 -1 1v9h-5a3 3 0 0 0 -3 3v12a3 3 0 0 0 3 3h12a3 3 0 0 0 3-3v-12a3 3 0 0 0 -3-3h-5v-8h8v4a1 1 0 0 0 1 1h22a1 1 0 0 0 1-1v-4h8v8h-5a3 3 0 0 0 -3 3v12a3 3 0 0 0 3 3h12a3 3 0 0 0 3-3v-12a3 3 0 0 0 -3-3h-5v-9a1 1 0 0 0 -1-1h-9v-4zm-1-26h2v4.586l-.293-.293a1 1 0 0 0 -1.414 0l-.293.293zm-6 13v-12a1 1 0 0 1 1-1h3v7a1 1 0 0 0 1.707.707l1.293-1.293 1.293 1.293a1 1 0 0 0 1.707-.707v-7h3a1 1 0 0 1 1 1v12a1 1 0 0 1 -1 1h-12a1 1 0 0 1 -1-1zm-36-13h2v4.586l-.293-.293a1 1 0 0 0 -1.414 0l-.293.293zm-6 13v-12a1 1 0 0 1 1-1h3v7a1 1 0 0 0 1.707.707l1.293-1.293 1.293 1.293a1 1 0 0 0 1.707-.707v-7h3a1 1 0 0 1 1 1v12a1 1 0 0 1 -1 1h-12a1 1 0 0 1 -1-1zm6 29h2v4.586l-.293-.293a1 1 0 0 0 -1.414 0l-.293.293zm8 1v12a1 1 0 0 1 -1 1h-12a1 1 0 0 1 -1-1v-12a1 1 0 0 1 1-1h3v7a1 1 0 0 0 1.707.707l1.293-1.293 1.293 1.293a1 1 0 0 0 1.707-.707v-7h3a1 1 0 0 1 1 1zm34-1h2v4.586l-.293-.293a1 1 0 0 0 -1.414 0l-.293.293zm8 1v12a1 1 0 0 1 -1 1h-12a1 1 0 0 1 -1-1v-12a1 1 0 0 1 1-1h3v7a1 1 0 0 0 1.707.707l1.293-1.293 1.293 1.293a1 1 0 0 0 1.707-.707v-7h3a1 1 0 0 1 1 1zm-28-27.563 6.89 3.563h-13.78zm6 19.563h-12v-10h12zm2 0v-11a1 1 0 0 0 -1-1h-14a1 1 0 0 0 -1 1v11h-2v-14h20v14z"/></svg>