<svg height="512pt" viewBox="0 0 512 512" width="512pt" xmlns="http://www.w3.org/2000/svg"><path d="m273.066406 170.667969h85.332032c9.425781 0 17.066406 7.640625 17.066406 17.066406v59.730469c0 9.425781-7.640625 17.070312-17.066406 17.070312h-85.332032c-9.425781 0-17.066406-7.644531-17.066406-17.070312v-59.730469c0-9.425781 7.640625-17.066406 17.066406-17.066406zm0 0" fill="#624421"/><path d="m273.066406 170.667969h59.734375c9.425781 0 17.066407 7.640625 17.066407 17.066406v59.730469c0 9.425781-7.640626 17.070312-17.066407 17.070312h-59.734375c-9.425781 0-17.066406-7.644531-17.066406-17.070312v-59.730469c0-9.425781 7.640625-17.066406 17.066406-17.066406zm0 0" fill="#825a2c"/><path d="m298.667969 170.667969h34.132812v93.867187h-34.132812zm0 0" fill="#624421"/><path d="m25.601562 358.398438h42.664063v123.734374c0 11.78125-9.550781 21.332032-21.332031 21.332032s-21.332032-9.550782-21.332032-21.332032zm0 0" fill="#3f51b5"/><path d="m93.867188 170.667969c-.007813 23.558593-19.105469 42.65625-42.667969 42.664062-4.332031-.011719-8.644531-.644531-12.800781-1.875-17.78125-5.632812-29.863282-22.136719-29.863282-40.789062 0-18.652344 12.082032-35.15625 29.863282-40.789063 4.15625-1.234375 8.46875-1.867187 12.800781-1.878906 23.5625.007812 42.660156 19.105469 42.667969 42.667969zm0 0" fill="#dfc49c"/><path d="m68.265625 170.667969c0-22.527344-13.371094-40.789063-29.867187-40.789063-16.492188 0-29.863282 18.261719-29.863282 40.789063 0 22.527343 13.371094 40.789062 29.863282 40.789062 16.496093 0 29.867187-18.261719 29.867187-40.789062zm0 0" fill="#ffe0b2"/><path d="m68.265625 239.617188v-.683594h-17.066406c-18.851563 0-34.132813 15.28125-34.132813 34.132812v93.867188c0 4.710937 3.820313 8.53125 8.535156 8.53125h42.664063v-100.777344" fill="#9d27b0"/><path d="m107.863281 264.742188c8.382813-1.941407 15.722657-6.976563 20.550781-14.101563l9.726563-14.347656 21.164063-31.230469c5.230468-7.800781 3.183593-18.359375-4.582032-23.636719-7.765625-5.28125-18.335937-3.296875-23.664062 4.433594l-29.097656 42.886719c-1.207032 1.78125-3.039063 3.039062-5.132813 3.523437l-34.632813 8.035157-22.996093 5.289062c-4.421875 1.019531-8.253907 3.753906-10.65625 7.601562-2.398438 3.847657-3.167969 8.492188-2.136719 12.910157 2.140625 9.171875 11.308594 14.878906 20.484375 12.746093l15.304687-3.5625 4.179688-.9375zm0 0" fill="#9d27b0"/><path d="m59.734375 273.066406 57.34375 38.996094c7.734375 5.328125 9.714844 15.898438 4.433594 23.664062-5.277344 7.765626-15.835938 9.8125-23.632813 4.582032l-29.613281-20.136719" fill="#9d27b0"/><path d="m426.667969 98.902344-17.066407 12.03125-54.359374 9.898437c-17.253907 3.097657-34.808594 4.15625-52.308594 3.15625-8.960938-.5-17.878906-1.554687-26.710938-3.15625l-54.355468-9.898437-17.066407-11.691406 17.066407-13.910157 54.355468-9.898437c8.832032-1.601563 17.75-2.65625 26.710938-3.15625 17.5-1 35.054687.058594 52.308594 3.15625l54.359374 9.898437zm0 0" fill="#f57c00"/><path d="m384 85.332031v25.601563l-54.355469 9.898437c-8.832031 1.601563-17.75 2.65625-26.710937 3.15625-8.960938-.5-17.878906-1.554687-26.710938-3.15625l-54.355468-9.898437-17.066407-11.691406 17.066407-13.910157 54.355468-9.898437c8.832032-1.601563 17.75-2.65625 26.710938-3.15625 8.960937.5 17.878906 1.554687 26.710937 3.15625zm0 0" fill="#ff9801"/><path d="m350.363281 366.933594c1.578125 0 3.027344.871094 3.765625 2.265625.738282 1.394531.648438 3.082031-.234375 4.390625l-34.6875 51.269531c-.800781 1.121094-2.09375 1.785156-3.472656 1.785156s-2.671875-.664062-3.472656-1.785156l-34.691407-51.269531c-.882812-1.308594-.972656-2.996094-.234374-4.390625.742187-1.394531 2.191406-2.265625 3.769531-2.265625h17.5625v-51.199219c0-4.714844 3.820312-8.535156 8.53125-8.535156h17.066406c4.714844 0 8.535156 3.820312 8.535156 8.535156v51.199219zm0 0" fill="#f44335"/><g fill="#f57c00"><path d="m204.800781 8.535156c9.425781 0 17.066407 7.640625 17.066407 17.066406v17.066407h-34.132813v-17.066407c0-9.425781 7.640625-17.066406 17.066406-17.066406zm0 0"/><path d="m426.667969 8.535156c9.425781 0 17.066406 7.640625 17.066406 17.066406v17.066407h-34.132813v-17.066407c0-9.425781 7.640626-17.066406 17.066407-17.066406zm0 0"/><path d="m187.734375 42.667969h34.132813v68.265625h-17.066407c-9.425781 0-17.066406-7.640625-17.066406-17.066406zm0 0"/><path d="m409.601562 42.667969h34.132813v51.199219c0 9.425781-7.640625 17.066406-17.066406 17.066406h-17.066407zm0 0"/></g><path d="m51.199219 221.867188c-28.277344 0-51.199219-22.921876-51.199219-51.199219 0-28.277344 22.921875-51.203125 51.199219-51.203125 28.277343 0 51.199219 22.925781 51.199219 51.203125-.03125 28.261719-22.933594 51.167969-51.199219 51.199219zm0-85.332032c-18.851563 0-34.132813 15.28125-34.132813 34.132813 0 18.851562 15.28125 34.132812 34.132813 34.132812 18.851562 0 34.132812-15.28125 34.132812-34.132812-.019531-18.84375-15.289062-34.113281-34.132812-34.132813zm0 0"/><path d="m68.265625 384h-42.664063c-9.421874-.011719-17.058593-7.644531-17.066406-17.066406v-93.867188c.027344-23.550781 19.113282-42.636718 42.664063-42.667968h17.066406c4.714844 0 8.535156 3.820312 8.535156 8.535156.027344 4.78125-3.757812 8.714844-8.535156 8.875-.84375 0-1.6875-.113282-2.5-.34375h-14.566406c-14.132813.015625-25.582031 11.46875-25.597657 25.601562v93.867188h34.132813v-92.246094c0-4.710938 3.820313-8.53125 8.53125-8.53125 4.714844 0 8.535156 3.820312 8.535156 8.53125v100.777344c0 4.714844-3.820312 8.535156-8.535156 8.535156zm0 0"/><path d="m46.933594 512c-16.488282-.019531-29.847656-13.378906-29.867188-29.867188v-106.667968c0-4.710938 3.820313-8.53125 8.535156-8.53125h42.664063c4.714844 0 8.535156 3.820312 8.535156 8.53125v106.667968c-.019531 16.488282-13.378906 29.847657-29.867187 29.867188zm-12.800782-128v98.132812c0 7.070313 5.730469 12.800782 12.800782 12.800782 7.070312 0 12.800781-5.730469 12.800781-12.800782v-98.132812zm0 0"/><path d="m42.957031 288.632812c-13.027343.011719-23.988281-9.765624-25.457031-22.710937-1.472656-12.945313 7.015625-24.929687 19.714844-27.84375l57.617187-13.324219 29.09375-42.886718c7.957031-11.667969 23.855469-14.691407 35.542969-6.757813 11.683594 7.929687 14.742188 23.820313 6.839844 35.523437l-30.898438 45.597657c-6.027344 8.910156-15.210937 15.207031-25.695312 17.625l-60.964844 14.109375c-1.898438.441406-3.84375.667968-5.792969.667968zm102.183594-100.894531c-2.839844-.011719-5.503906 1.386719-7.105469 3.734375l-29.09375 42.867188c-2.402344 3.566406-6.066406 6.082031-10.257812 7.042968l-57.636719 13.335938c-2.214844.503906-4.132813 1.871094-5.332031 3.796875-1.203125 1.921875-1.585938 4.246094-1.070313 6.453125 1.082031 4.578125 5.65625 7.425781 10.242188 6.375l60.980469-14.105469c6.289062-1.449219 11.796874-5.226562 15.410156-10.578125l30.890625-45.582031c1.789062-2.605469 1.988281-5.992187.511719-8.789063-1.472657-2.796874-4.375-4.550781-7.535157-4.546874zm0 0"/><path d="m107.433594 351.742188c-5.109375.015624-10.105469-1.507813-14.339844-4.367188l-29.628906-20.148438c-2.570313-1.695312-4.03125-4.644531-3.820313-7.714843.210938-3.074219 2.0625-5.796875 4.84375-7.121094s6.058594-1.046875 8.578125.726563l29.609375 20.136718c3.949219 2.476563 9.136719 1.480469 11.886719-2.28125 2.609375-3.914062 1.585938-9.199218-2.292969-11.863281l-44.609375-30.28125c-2.597656-1.679687-4.082031-4.632813-3.878906-7.722656.199219-3.085938 2.058594-5.820313 4.851562-7.148438 2.796876-1.328125 6.089844-1.039062 8.609376.753907l44.625 30.296874c9.316406 6.304688 13.414062 17.960938 10.09375 28.710938-3.320313 10.75-13.277344 18.066406-24.527344 18.023438zm0 0"/><path d="m503.464844 51.199219h-153.597656c-4.714844 0-8.535157-3.820313-8.535157-8.53125 0-4.714844 3.820313-8.535157 8.535157-8.535157h153.597656c4.714844 0 8.535156 3.820313 8.535156 8.535157 0 4.710937-3.820312 8.53125-8.535156 8.53125zm0 0"/><path d="m281.601562 51.199219h-153.601562c-4.710938 0-8.535156-3.820313-8.535156-8.53125 0-4.714844 3.824218-8.535157 8.535156-8.535157h153.601562c4.710938 0 8.53125 3.820313 8.53125 8.535157 0 4.710937-3.820312 8.53125-8.53125 8.53125zm0 0"/><path d="m221.867188 51.199219h-34.132813c-4.714844 0-8.535156-3.820313-8.535156-8.53125v-17.066407c0-14.140624 11.460937-25.601562 25.601562-25.601562 14.136719 0 25.597657 11.460938 25.597657 25.601562v17.066407c0 4.710937-3.820313 8.53125-8.53125 8.53125zm-25.601563-17.066407h17.066406v-8.53125c0-4.714843-3.820312-8.535156-8.53125-8.535156-4.714843 0-8.535156 3.820313-8.535156 8.535156zm0 0"/><path d="m443.734375 51.199219h-34.132813c-4.714843 0-8.535156-3.820313-8.535156-8.53125v-17.066407c0-14.140624 11.460938-25.601562 25.601563-25.601562 14.136719 0 25.597656 11.460938 25.597656 25.601562v17.066407c0 4.710937-3.820313 8.53125-8.53125 8.53125zm-25.601563-17.066407h17.066407v-8.53125c0-4.714843-3.820313-8.535156-8.53125-8.535156-4.714844 0-8.535157 3.820313-8.535157 8.535156zm0 0"/><path d="m221.867188 119.464844h-17.066407c-14.132812-.015625-25.585937-11.464844-25.601562-25.597656v-51.199219c0-4.714844 3.820312-8.535157 8.535156-8.535157h34.132813c4.710937 0 8.53125 3.820313 8.53125 8.535157v68.265625c0 4.710937-3.820313 8.53125-8.53125 8.53125zm-25.601563-68.265625v42.667969c.003906 4.710937 3.824219 8.527343 8.535156 8.53125h8.53125v-51.199219zm0 0"/><path d="m426.667969 119.464844h-17.066407c-4.714843 0-8.535156-3.820313-8.535156-8.53125v-68.265625c0-4.714844 3.820313-8.535157 8.535156-8.535157h34.132813c4.710937 0 8.53125 3.820313 8.53125 8.535157v51.199219c-.015625 14.132812-11.46875 25.582031-25.597656 25.597656zm-8.535157-17.066406h8.535157c4.710937-.003907 8.527343-3.820313 8.53125-8.53125v-42.667969h-17.066407zm0 0"/><path d="m409.609375 93.867188c-.515625 0-1.03125-.046876-1.535156-.136719l-54.382813-9.890625c-25.097656-4.574219-50.816406-4.574219-75.917968 0l-54.382813 9.890625c-4.628906.828125-9.058594-2.25-9.898437-6.875-.839844-4.628907 2.222656-9.066407 6.847656-9.917969l54.386718-9.886719c27.113282-4.949219 54.902344-4.949219 82.015626 0l54.382812 9.886719c4.34375.789062 7.367188 4.761719 6.972656 9.15625-.390625 4.398438-4.074218 7.769531-8.488281 7.773438zm0 0"/><path d="m315.734375 132.925781c-13.753906-.003906-27.480469-1.242187-41.007813-3.707031l-54.386718-9.890625c-4.625-.851563-7.6875-5.289063-6.847656-9.914063.839843-4.628906 5.269531-7.703124 9.898437-6.875l54.382813 9.886719c25.101562 4.574219 50.820312 4.574219 75.917968 0l54.382813-9.886719c4.632812-.828124 9.058593 2.246094 9.898437 6.875.839844 4.625-2.222656 9.0625-6.847656 9.914063l-54.382812 9.890625c-13.53125 2.464844-27.253907 3.703125-41.007813 3.707031zm0 0"/><path d="m221.867188 204.800781c-4.714844 0-8.535157-3.820312-8.535157-8.535156v-16.777344c-.019531-18.570312 5.492188-36.726562 15.828125-52.15625l9.164063-13.714843c1.660156-2.617188 4.605469-4.132813 7.699219-3.953126 3.09375.179688 5.847656 2.019532 7.195312 4.8125 1.347656 2.789063 1.074219 6.089844-.710938 8.625l-9.167968 13.714844c-8.449219 12.625-12.953125 27.476563-12.941406 42.667969v16.78125c0 4.714844-3.820313 8.535156-8.53125 8.535156zm0 0"/><path d="m409.601562 204.800781c-4.714843 0-8.535156-3.820312-8.535156-8.535156v-16.777344c.015625-15.191406-4.492187-30.042969-12.941406-42.667969l-9.167969-13.714843c-1.785156-2.535157-2.054687-5.835938-.710937-8.625 1.347656-2.792969 4.101562-4.632813 7.195312-4.8125 3.09375-.175781 6.042969 1.335937 7.699219 3.953125l9.167969 13.714844c10.335937 15.429687 15.84375 33.582031 15.824218 52.152343v16.777344c0 4.714844-3.820312 8.535156-8.53125 8.535156zm0 0"/><path d="m358.398438 273.066406h-85.332032c-14.132812-.015625-25.585937-11.46875-25.601562-25.601562v-59.730469c.015625-14.132813 11.46875-25.585937 25.601562-25.601563h85.332032c14.132812.015626 25.585937 11.46875 25.601562 25.601563v59.730469c-.015625 14.132812-11.46875 25.585937-25.601562 25.601562zm-85.332032-93.867187c-4.710937.003906-8.527344 3.824219-8.53125 8.535156v59.730469c.003906 4.714844 3.820313 8.53125 8.53125 8.535156h85.332032c4.710937-.003906 8.53125-3.820312 8.535156-8.535156v-59.730469c-.003906-4.710937-3.824219-8.53125-8.535156-8.535156zm0 0"/><path d="m290.132812 179.199219c-4.710937 0-8.53125-3.820313-8.53125-8.53125v-47.875c0-4.710938 3.820313-8.53125 8.53125-8.53125 4.714844 0 8.535157 3.820312 8.535157 8.53125v47.875c0 4.710937-3.820313 8.53125-8.535157 8.53125zm0 0"/><path d="m341.332031 179.199219c-4.710937 0-8.53125-3.820313-8.53125-8.53125v-47.875c0-4.710938 3.820313-8.53125 8.53125-8.53125 4.714844 0 8.535157 3.820312 8.535157 8.53125v47.875c0 4.710937-3.820313 8.53125-8.535157 8.53125zm0 0"/><path d="m315.734375 435.179688c-4.128906-.003907-8.003906-1.996094-10.410156-5.351563l-34.816407-51.453125c-2.65625-3.925781-2.925781-8.992188-.707031-13.175781 2.222657-4.183594 6.570313-6.800781 11.308594-6.800781h9.023437v-42.664063c.011719-9.421875 7.644532-17.058594 17.066407-17.066406h17.066406c9.421875.007812 17.058594 7.644531 17.066406 17.066406v42.664063h9.027344c4.734375 0 9.085937 2.617187 11.308594 6.800781 2.21875 4.183593 1.949219 9.253906-.707031 13.175781l-34.683594 51.265625c-2.40625 3.449219-6.339844 5.515625-10.542969 5.539063zm-26.585937-59.714844 26.585937 39.300781 26.589844-39.300781h-9.523438c-4.714843 0-8.535156-3.820313-8.535156-8.53125v-51.199219h-17.066406v51.199219c0 4.710937-3.820313 8.53125-8.53125 8.53125zm0 0"/><path d="m332.800781 273.066406h-34.132812c-4.714844 0-8.535157-3.820312-8.535157-8.53125v-93.867187c0-4.714844 3.820313-8.535157 8.535157-8.535157h34.132812c4.710938 0 8.53125 3.820313 8.53125 8.535157v93.867187c0 4.710938-3.820312 8.53125-8.53125 8.53125zm-25.601562-17.066406h17.066406v-76.800781h-17.066406zm0 0"/></svg>