<svg height="512pt" viewBox="0 0 512 512" width="512pt" xmlns="http://www.w3.org/2000/svg"><path d="m331.664062 154h-151.332031c-9.019531 0-16.332031-7.3125-16.332031-16.332031v-71.335938c0-9.019531 7.3125-16.332031 16.332031-16.332031h151.332031c9.023438 0 16.335938 7.3125 16.335938 16.332031v71.332031c0 9.023438-7.3125 16.335938-16.335938 16.335938zm0 0" fill="#dff6fc"/><path d="m197.769531 174-61.78125 45.523438v85.976562c0 11.046875-8.953125 20-20 20s-20-8.953125-20-20v-106.1875l70.960938-52.289062zm0 0" fill="#91def5"/><path d="m448.132812 121.867188h-44v18c0 12.152343 9.847657 22 22 22 12.148438 0 22-9.847657 22-22zm0 0" fill="#60a4ff"/><path d="m302.75 194h-93.5l-17.5-40h128.5zm0 0" fill="#60a4ff"/><path d="m314.230469 174 61.78125 45.523438v85.976562c0 11.046875 8.953125 20 20 20s20-8.953125 20-20v-106.1875l-70.960938-52.289062zm0 0" fill="#91def5"/><path d="m178.925781 304.925781h154.144531v154.148438h-154.144531zm0 0" fill="#ffd89e"/><g fill="#ffc15a"><path d="m333.074219 304.925781h42.925781v154.148438h-42.925781zm0 0"/><path d="m136 304.925781h42.925781v154.148438h-42.925781zm0 0"/><path d="m376 304.925781h-240v-22.925781c0-11.046875 8.953125-20 20-20h200c11.046875 0 20 8.953125 20 20zm0 0"/><path d="m376 459.074219h-240v22.925781c0 11.046875 8.953125 20 20 20h200c11.046875 0 20-8.953125 20-20zm0 0"/></g><path d="m63.867188 121.867188h44v18c0 12.152343-9.847657 22-22 22-12.148438 0-22-9.847657-22-22zm0 0" fill="#60a4ff"/><path d="m299.980469 112c5.519531 0 10-4.476562 10-10v-.140625c0-5.519531-4.480469-10-10-10-5.523438 0-10 4.480469-10 10v.140625c0 5.523438 4.476562 10 10 10zm0 0"/><path d="m256 112c5.523438 0 10-4.476562 10-10v-.140625c0-5.519531-4.476562-10-10-10s-10 4.480469-10 10v.140625c0 5.523438 4.476562 10 10 10zm0 0"/><path d="m212.019531 112c5.523438 0 10-4.476562 10-10v-.140625c0-5.519531-4.476562-10-10-10-5.519531 0-10 4.480469-10 10v.140625c0 5.523438 4.480469 10 10 10zm0 0"/><path d="m502 0h-152c-5.523438 0-10 4.476562-10 10s4.476562 10 10 10h66v51.859375h-58v-5.527344c0-14.519531-11.8125-26.332031-26.332031-26.332031h-151.335938c-14.519531 0-26.332031 11.8125-26.332031 26.332031v5.527344h-58v-51.859375h66c5.523438 0 10-4.476562 10-10s-4.476562-10-10-10h-152c-5.523438 0-10 4.476562-10 10s4.476562 10 10 10h66v51.859375h-18.5c-16.542969 0-30 13.460937-30 30 0 15.3125 11.535156 27.976563 26.367188 29.773437v8.234376c0 17.644531 14.355468 32 32 32 17.644531 0 32-14.355469 32-32v-8.007813h36.132812v5.804687c0 2.054688.242188 4.050782.691406 5.96875l-64.636718 47.628907c-2.558594 1.882812-4.066407 4.871093-4.066407 8.050781v106.1875c0 16.542969 13.457031 30 30 30 3.507813 0 6.878907-.609375 10.011719-1.722656v148.222656c0 16.542969 13.457031 30 30 30h60c5.523438 0 10-4.476562 10-10s-4.476562-10-10-10h-60c-5.515625 0-10-4.484375-10-10v-12.925781h220v12.925781c0 5.515625-4.484375 10-10 10h-58.503906c-5.523438 0-10 4.476562-10 10s4.476562 10 10 10h58.503906c16.542969 0 30-13.457031 30-30v-148.222656c3.132812 1.113281 6.503906 1.722656 10.011719 1.722656 16.542969 0 30-13.457031 30-30v-106.1875c0-3.179688-1.507813-6.167969-4.066407-8.050781l-64.636718-47.625c.449218-1.921875.691406-3.917969.691406-5.96875v-5.804688h36.132812v8.003907c0 17.648437 14.355469 32 32 32 17.644532 0 32-14.351563 32-32v-8.230469c14.832032-1.800781 26.367188-14.460938 26.367188-29.773438 0-16.542969-13.457031-30-30-30h-18.5v-51.863281h66c5.523438 0 10-4.476562 10-10s-4.476562-10-10-10zm-404.132812 139.867188c0 6.617187-5.382813 12-12 12-6.613282 0-12-5.382813-12-12v-8h24zm54.882812-28.007813h-95.25c-5.515625 0-10-4.484375-10-10 0-5.511719 4.484375-10 10-10h95.25zm21.25-45.527344c0-3.492187 2.839844-6.332031 6.332031-6.332031h151.335938c3.492187 0 6.332031 2.839844 6.332031 6.332031v71.335938c0 3.492187-2.839844 6.332031-6.332031 6.332031h-151.335938c-3.492187 0-6.332031-2.839844-6.332031-6.332031zm192.011719 187.390625c-3.132813-1.109375-6.5-1.722656-10.011719-1.722656h-61.273438c-5.519531 0-10 4.476562-10 10s4.480469 10 10 10h61.273438c5.515625 0 10 4.484375 10 10v12.925781h-220v-12.925781c0-5.515625 4.484375-10 10-10h58.730469c5.523437 0 10-4.476562 10-10s-4.476563-10-10-10h-58.730469c-3.511719 0-6.878906.609375-10.011719 1.722656v-29.148437l49.703125-36.621094 4.398438 10.054687c1.589844 3.640626 5.1875 5.992188 9.160156 5.992188h93.5c3.972656 0 7.570312-2.351562 9.160156-5.992188l4.398438-10.054687 49.703125 36.625zm-124.15625 128.277344-52.929688 52.929688v-105.859376zm-38.785157-67.074219h105.859376l-52.929688 52.933594zm52.929688 81.21875 52.929688 52.929688h-105.859376zm14.140625-14.144531 52.933594-52.929688v105.859376zm26.070313-198h-80.421876l-8.75-20h97.921876zm-170.222657 121.5c0 5.515625-4.484375 10-10 10s-10-4.484375-10-10v-101.136719l60.304688-44.433593c4.066406 2.574218 8.882812 4.070312 14.039062 4.070312h4.878907l2.257812 5.167969-57.414062 42.304687c-2.558594 1.886719-4.066407 4.875-4.066407 8.050782zm20.011719 143.574219v-134.148438h22.925781v134.148438zm197.074219 0v-134.148438h22.925781v134.148438zm62.9375-143.574219c0 5.515625-4.484375 10-10 10s-10-4.484375-10-10v-85.976562c0-3.179688-1.507813-6.167969-4.066407-8.050782l-57.417968-42.308594 2.261718-5.164062h4.875c5.160157 0 9.976563-1.496094 14.042969-4.074219l60.304688 44.4375zm32.121093-165.632812c0 6.617187-5.386718 12-12 12-6.617187 0-12-5.382813-12-12v-8h24zm26.367188-38.007813c0 5.515625-4.484375 10-10 10h-95.25v-20h95.25c5.511719 0 10 4.488281 10 10zm0 0"/><path d="m256 492c-2.628906 0-5.210938 1.070312-7.070312 2.929688-1.859376 1.859374-2.929688 4.441406-2.929688 7.070312s1.070312 5.210938 2.929688 7.070312c1.859374 1.859376 4.441406 2.929688 7.070312 2.929688s5.210938-1.070312 7.070312-2.929688c1.859376-1.859374 2.929688-4.441406 2.929688-7.070312s-1.070312-5.210938-2.929688-7.070312c-1.859374-1.859376-4.441406-2.929688-7.070312-2.929688zm0 0"/><path d="m254.730469 252c-2.632813 0-5.210938 1.070312-7.070313 2.929688-1.859375 1.859374-2.929687 4.441406-2.929687 7.070312s1.070312 5.210938 2.929687 7.070312c1.859375 1.859376 4.4375 2.929688 7.070313 2.929688 2.628906 0 5.207031-1.070312 7.070312-2.929688 1.859375-1.859374 2.929688-4.441406 2.929688-7.070312s-1.070313-5.210938-2.929688-7.070312c-1.863281-1.859376-4.441406-2.929688-7.070312-2.929688zm0 0"/></svg>