<?xml version="1.0"?>
<svg xmlns="http://www.w3.org/2000/svg" viewBox="0 0 64 64" width="512" height="512"><g id="distribution"><path d="M53,30a1,1,0,0,0,1-1V20h5a3,3,0,0,0,3-3V5a3,3,0,0,0-3-3H47a3,3,0,0,0-3,3V17a3,3,0,0,0,3,3h5v8H44V24h-.012a.988.988,0,0,0-.529-.888l-11-5.69a1,1,0,0,0-.918,0l-11,5.69a.988.988,0,0,0-.529.888H20v4H12V20h5a3,3,0,0,0,3-3V5a3,3,0,0,0-3-3H5A3,3,0,0,0,2,5V17a3,3,0,0,0,3,3h5v9a1,1,0,0,0,1,1h9v4H11a1,1,0,0,0-1,1v9H5a3,3,0,0,0-3,3V59a3,3,0,0,0,3,3H17a3,3,0,0,0,3-3V47a3,3,0,0,0-3-3H12V36h8v4a1,1,0,0,0,1,1H43a1,1,0,0,0,1-1V36h8v8H47a3,3,0,0,0-3,3V59a3,3,0,0,0,3,3H59a3,3,0,0,0,3-3V47a3,3,0,0,0-3-3H54V35a1,1,0,0,0-1-1H44V30ZM52,4h2V8.586l-.293-.293a1,1,0,0,0-1.414,0L52,8.586ZM46,17V5a1,1,0,0,1,1-1h3v7a1,1,0,0,0,1.707.707L53,10.414l1.293,1.293A1,1,0,0,0,56,11V4h3a1,1,0,0,1,1,1V17a1,1,0,0,1-1,1H47A1,1,0,0,1,46,17ZM10,4h2V8.586l-.293-.293a1,1,0,0,0-1.414,0L10,8.586ZM4,17V5A1,1,0,0,1,5,4H8v7a1,1,0,0,0,1.707.707L11,10.414l1.293,1.293A1,1,0,0,0,14,11V4h3a1,1,0,0,1,1,1V17a1,1,0,0,1-1,1H5A1,1,0,0,1,4,17Zm6,29h2v4.586l-.293-.293a1,1,0,0,0-1.414,0L10,50.586Zm8,1V59a1,1,0,0,1-1,1H5a1,1,0,0,1-1-1V47a1,1,0,0,1,1-1H8v7a1,1,0,0,0,1.707.707L11,52.414l1.293,1.293A1,1,0,0,0,14,53V46h3A1,1,0,0,1,18,47Zm34-1h2v4.586l-.293-.293a1,1,0,0,0-1.414,0L52,50.586Zm8,1V59a1,1,0,0,1-1,1H47a1,1,0,0,1-1-1V47a1,1,0,0,1,1-1h3v7a1,1,0,0,0,1.707.707L53,52.414l1.293,1.293A1,1,0,0,0,56,53V46h3A1,1,0,0,1,60,47ZM32,19.437,38.89,23H25.11ZM38,39H26V29H38Zm2,0V28a1,1,0,0,0-1-1H25a1,1,0,0,0-1,1V39H22V25H42V39Z"/></g></svg>
