<svg height="512pt" viewBox="0 0 512 512" width="512pt" xmlns="http://www.w3.org/2000/svg"><path d="m51.199219 221.867188c28.277343 0 51.199219-22.921876 51.199219-51.199219 0-28.277344-22.921876-51.203125-51.199219-51.203125-28.277344 0-51.199219 22.925781-51.199219 51.203125.03125 28.261719 22.9375 51.167969 51.199219 51.199219zm0-85.332032c18.851562 0 34.132812 15.28125 34.132812 34.132813 0 18.851562-15.28125 34.132812-34.132812 34.132812-18.851563 0-34.132813-15.28125-34.132813-34.132812.019532-18.84375 15.289063-34.113281 34.132813-34.132813zm0 0"/><path d="m135.410156 256.234375 30.898438-45.597656c7.902344-11.703125 4.84375-27.59375-6.839844-35.527344-11.6875-7.929687-27.585938-4.90625-35.542969 6.761719l-29.09375 42.886718-25.40625 5.875c-.378906-.105468-.765625-.183593-1.160156-.234374h-17.066406c-23.550781.03125-42.636719 19.117187-42.664063 42.667968v93.867188c.019532 6.070312 3.269532 11.667968 8.53125 14.691406v100.507812c0 16.496094 13.371094 29.867188 29.867188 29.867188s29.867187-13.371094 29.867187-29.867188v-145.839843l16.292969 11.082031c11.699219 7.945312 27.625 4.902344 35.570312-6.796875 7.945313-11.703125 4.902344-27.628906-6.796874-35.574219l-37.308594-25.324218 25.15625-5.820313c10.484375-2.417969 19.667968-8.714844 25.695312-17.625zm-75.675781 110.699219h-34.132813v-85.214844c6.175782 5.839844 14.871094 8.1875 23.148438 6.246094l10.984375-2.539063zm0 115.199218c0 7.070313-5.730469 12.800782-12.800781 12.800782-7.070313 0-12.800782-5.730469-12.800782-12.800782v-98.132812h25.601563zm54.824219-151.164062c-2.746094 3.765625-7.9375 4.761719-11.882813 2.285156l-25.875-17.597656v-20.621094l35.464844 24.078125c3.878906 2.660157 4.898437 7.941407 2.292969 11.855469zm-69.671875-59.625c-3.367188.78125-6.871094-.539062-8.878907-3.347656-2.007812-2.808594-2.125-6.554688-.296874-9.484375 1.199218-1.925781 3.121093-3.292969 5.335937-3.792969l57.640625-13.332031c4.1875-.960938 7.855469-3.476563 10.257812-7.042969l29.089844-42.871094c2.664063-3.878906 7.949219-4.898437 11.863282-2.285156 3.855468 2.691406 4.863281 7.964844 2.273437 11.890625l-30.890625 45.582031c-3.613281 5.351563-9.117188 9.128906-15.40625 10.578125zm0 0"/><path d="m503.464844 34.132812h-51.199219v-8.53125c0-14.140624-11.460937-25.601562-25.597656-25.601562-14.140625 0-25.601563 11.460938-25.601563 25.601562v8.53125h-51.199218c-4.714844 0-8.535157 3.820313-8.535157 8.535157 0 4.710937 3.820313 8.53125 8.535157 8.53125h51.199218v23.910156l-44.324218-8.058594c-27.113282-4.949219-54.902344-4.949219-82.015626 0l-44.328124 8.058594v-23.910156h51.203124c4.710938 0 8.53125-3.820313 8.53125-8.53125 0-4.714844-3.820312-8.535157-8.53125-8.535157h-51.203124v-8.53125c0-14.140624-11.460938-25.601562-25.597657-25.601562-14.140625 0-25.601562 11.460938-25.601562 25.601562v8.53125h-51.199219c-4.710938 0-8.535156 3.820313-8.535156 8.535157 0 4.710937 3.824218 8.53125 8.535156 8.53125h51.199219v42.667969c.015625 14.132812 11.46875 25.582031 25.601562 25.597656h16.296875l11.875 2.160156-3.8125 5.707031c-10.335937 15.429688-15.847656 33.585938-15.828125 52.15625v16.777344c0 4.714844 3.820313 8.535156 8.535157 8.535156 4.710937 0 8.53125-3.820312 8.53125-8.535156v-16.777344c-.011719-15.191406 4.492187-30.042969 12.941406-42.667969l7.929687-11.859374 23.457031 4.265624c2.285157.414063 4.582032.585938 6.875.9375v31.96875h-8.535156c-14.132812.015626-25.585937 11.46875-25.601562 25.601563v59.730469c.015625 14.132812 11.46875 25.585937 25.601562 25.601562h85.332032c14.132812-.015625 25.585937-11.46875 25.601562-25.601562v-59.730469c-.015625-14.132813-11.46875-25.585937-25.601562-25.601563h-8.53125v-31.980468c2.289062-.347656 4.589843-.519532 6.875-.941406l23.453124-4.265626 7.929688 11.863282c8.449219 12.621094 12.957031 27.472656 12.941406 42.664062v16.792969c0 4.714844 3.820313 8.535156 8.535156 8.535156 4.710938 0 8.53125-3.820312 8.53125-8.535156v-16.777344c.019532-18.570312-5.488281-36.726562-15.824218-52.15625l-3.816406-5.707031 11.875-2.160156h16.300781c14.128906-.015625 25.582031-11.464844 25.597656-25.597656v-42.667969h51.199219c4.714844 0 8.535156-3.820313 8.535156-8.53125 0-4.714844-3.820312-8.535157-8.535156-8.535157zm-85.332032-8.53125c0-4.714843 3.820313-8.535156 8.535157-8.535156 4.710937 0 8.53125 3.820313 8.53125 8.535156v8.53125h-17.066407zm-221.867187 0c0-4.714843 3.820313-8.535156 8.535156-8.535156 4.710938 0 8.53125 3.820313 8.53125 8.535156v8.53125h-17.066406zm17.066406 76.796876h-8.53125c-4.710937-.003907-8.53125-3.820313-8.535156-8.53125v-42.667969h17.066406zm51.203125 145.066406v-59.730469c.003906-4.710937 3.820313-8.53125 8.53125-8.535156h17.066406v76.800781h-17.066406c-4.710937-.003906-8.527344-3.820312-8.53125-8.535156zm42.664063 8.535156v-76.800781h17.066406v76.800781zm59.734375-68.265625v59.730469c-.003906 4.714844-3.824219 8.53125-8.535156 8.535156h-17.066407v-76.800781h17.066407c4.710937.003906 8.53125 3.824219 8.535156 8.535156zm-34.132813-25.601563h-34.132812v-29.976562c5.683593.425781 11.371093.765625 17.066406.765625 5.691406 0 11.378906-.339844 17.066406-.765625zm20.890625-49.707031c-25.097656 4.574219-50.816406 4.574219-75.917968 0l-47.375-8.613281v-11.355469l47.375-8.617187c25.101562-4.574219 50.820312-4.574219 75.917968 0l47.375 8.617187v11.355469zm81.507813-18.558593c-.003907 4.710937-3.820313 8.527343-8.53125 8.53125h-8.535157v-51.199219h17.066407zm0 0"/><path d="m324.265625 298.667969h-17.066406c-9.421875.007812-17.054688 7.644531-17.066407 17.066406v42.664063h-9.023437c-4.738281 0-9.089844 2.617187-11.308594 6.800781-2.222656 4.183593-1.949219 9.253906.707031 13.175781l34.816407 51.457031c2.425781 3.390625 6.351562 5.386719 10.523437 5.347657 4.167969-.035157 8.058594-2.101563 10.425782-5.535157l34.6875-51.269531c2.65625-3.921875 2.925781-8.992188.707031-13.175781-2.222657-4.183594-6.574219-6.800781-11.308594-6.800781h-9.027344v-42.664063c-.007812-9.421875-7.644531-17.058594-17.066406-17.066406zm18.058594 76.796875-26.589844 39.300781-26.585937-39.300781h9.519531c4.710937 0 8.53125-3.820313 8.53125-8.53125v-51.199219h17.066406v51.199219c0 4.710937 3.820313 8.53125 8.535156 8.53125zm0 0"/></svg>