<?xml version="1.0" encoding="iso-8859-1"?>
<!-- Generator: Adobe Illustrator 17.1.0, SVG Export Plug-In . SVG Version: 6.00 Build 0)  -->
<!DOCTYPE svg PUBLIC "-//W3C//DTD SVG 1.1//EN" "http://www.w3.org/Graphics/SVG/1.1/DTD/svg11.dtd">
<svg version="1.1" id="Capa_1" xmlns="http://www.w3.org/2000/svg" xmlns:xlink="http://www.w3.org/1999/xlink" x="0px" y="0px"
	 viewBox="0 0 511 511" style="enable-background:new 0 0 511 511;" xml:space="preserve">
<g>
	<path d="M503.5,152H439v-0.5c0-12.958-10.542-23.5-23.5-23.5S392,138.542,392,151.5v0.5h-64.5c-4.142,0-7.5,3.358-7.5,7.5
		s3.358,7.5,7.5,7.5H384v8.5c0,0.168,0.01,0.333,0.013,0.5h-48.357c-0.007,0-0.014,0-0.021,0H175.376c-0.012,0-0.024,0-0.036,0
		h-48.353c0.003-0.167,0.013-0.332,0.013-0.5V167h56.5c4.142,0,7.5-3.358,7.5-7.5s-3.358-7.5-7.5-7.5H119v-0.5
		c0-12.958-10.542-23.5-23.5-23.5S72,138.542,72,151.5v0.5H7.5c-4.142,0-7.5,3.358-7.5,7.5s3.358,7.5,7.5,7.5H64v8.5
		c0,17.369,14.131,31.5,31.5,31.5c11.737,0,21.987-6.457,27.406-16h47.188l6.997,20.991c1.753,5.26,4.537,9.952,8.075,13.896
		C161.49,232.223,144,253.853,144,279.5v40c0,4.142,3.358,7.5,7.5,7.5h8c4.142,0,7.5-3.358,7.5-7.5s-3.358-7.5-7.5-7.5H159v-32.5
		c0-22.332,18.168-40.5,40.5-40.5h15.064h81.871H311.5c22.332,0,40.5,18.168,40.5,40.5V312h-0.5c-4.142,0-7.5,3.358-7.5,7.5
		s3.358,7.5,7.5,7.5h8c4.142,0,7.5-3.358,7.5-7.5v-40c0-25.647-17.49-47.277-41.166-53.613c3.538-3.944,6.321-8.636,8.075-13.896
		L340.906,191h47.188c5.419,9.543,15.669,16,27.406,16c17.369,0,31.5-14.131,31.5-31.5V167h56.5c4.142,0,7.5-3.358,7.5-7.5
		S507.642,152,503.5,152z M87,151.5c0-4.687,3.813-8.5,8.5-8.5s8.5,3.813,8.5,8.5v0.5H87V151.5z M95.5,192
		c-9.098,0-16.5-7.402-16.5-16.5V167h33v8.5C112,184.598,104.598,192,95.5,192z M319.678,207.248
		c-3.34,10.02-12.68,16.752-23.243,16.752h-81.871c-10.563,0-19.903-6.732-23.243-16.752L185.906,191h139.188L319.678,207.248z
		 M407,151.5c0-4.687,3.813-8.5,8.5-8.5s8.5,3.813,8.5,8.5v0.5h-17V151.5z M432,175.5c0,9.098-7.402,16.5-16.5,16.5
		s-16.5-7.402-16.5-16.5V167h33V175.5z"/>
	<path d="M325.5,256h-140c-5.238,0-9.5,4.262-9.5,9.5v108c0,5.238,4.262,9.5,9.5,9.5h140c5.238,0,9.5-4.262,9.5-9.5v-108
		C335,260.262,330.738,256,325.5,256z M320,368H191v-97h129V368z"/>
	<path d="M231.5,327H248v16.5c0,4.142,3.358,7.5,7.5,7.5s7.5-3.358,7.5-7.5V327h16.5c4.142,0,7.5-3.358,7.5-7.5s-3.358-7.5-7.5-7.5
		H263v-16.5c0-4.142-3.358-7.5-7.5-7.5s-7.5,3.358-7.5,7.5V312h-16.5c-4.142,0-7.5,3.358-7.5,7.5S227.358,327,231.5,327z"/>
</g>
<g>
</g>
<g>
</g>
<g>
</g>
<g>
</g>
<g>
</g>
<g>
</g>
<g>
</g>
<g>
</g>
<g>
</g>
<g>
</g>
<g>
</g>
<g>
</g>
<g>
</g>
<g>
</g>
<g>
</g>
</svg>
